# xmcd
#
# Track frame offsets: 
#        150
#        19117
#        33847
#        49045
#        62317
#
# Disc length: 1068 seconds
#
# Revision: 0
# Processed by: cddbd v1.5.2PL0 Copyright (c) Steve Scherf et al.
# Submitted via: ExactAudioCopy v1.3
#
DISCID=30042a05
DTITLE=Jackie Venson - Transcends
DYEAR=2017
DGENRE=Rock - Blues
TTITLE0=Flying
TTITLE1=Fast
TTITLE2=Mysterious
TTITLE3=Fight
TTITLE4=Transcends
EXTD=
EXTT0=
EXTT1=
EXTT2=
EXTT3=
EXTT4=
PLAYORDER=
